<svg width="676" height="300" viewBox="0 0 676 300" fill="none" xmlns="http://www.w3.org/2000/svg">
<path fill-rule="evenodd" clip-rule="evenodd" d="M7.97633 8.32605C13.0851 3.2132 20.0132 0.340958 27.237 0.340958C34.4608 0.340958 41.3889 3.2132 46.4977 8.32605L149.83 111.771L253.162 8.32605C255.675 5.72122 258.681 3.64352 262.005 2.21419C265.328 0.784851 268.903 0.0324975 272.52 0.00102974C276.138 -0.030438 279.725 0.659603 283.073 2.0309C286.421 3.4022 289.463 5.42728 292.021 7.98799C294.579 10.5487 296.602 13.5938 297.971 16.9455C299.341 20.2972 300.03 23.8885 299.999 27.5097C299.968 31.131 299.216 34.7097 297.788 38.0371C296.36 41.3644 294.285 44.3738 291.683 46.8897L188.351 150.335L291.683 253.781C296.646 258.924 299.392 265.813 299.329 272.964C299.267 280.115 296.402 286.955 291.351 292.012C286.3 297.069 279.467 299.937 272.324 299.999C265.181 300.061 258.3 297.312 253.162 292.344L149.83 188.899L46.4977 292.344C41.3596 297.312 34.478 300.061 27.335 299.999C20.1921 299.937 13.3592 297.069 8.30819 292.012C3.25715 286.955 0.392039 280.115 0.329969 272.964C0.267898 265.813 3.01383 258.924 7.97633 253.781L111.308 150.335L7.97633 46.8897C2.86909 41.7753 0 34.8396 0 27.6079C0 20.3761 2.86909 13.4404 7.97633 8.32605Z" fill="#9333EA"/>
<path d="M526 0C443.05 0 376 67.05 376 150C376 232.95 443.05 300 526 300C608.95 300 676 232.95 676 150C676 67.05 608.95 0 526 0ZM526 255.769C459.7 255.769 418.308 216.3 418.308 150C418.308 83.7 459.7 40.3846 526 40.3846C592.3 40.3846 633.692 83.7 633.692 150C633.692 216.3 592.3 255.769 526 255.769Z" fill="#EA335F"/>
</svg>
